BBC Sex, Lies and Gagging Orders. HD 720p x264 aac mp4 [aularon]


- - -
Synopsis
- - -
After a summer dominated by shocking revelations about phone hacking and celebrity superinjunctions, former Heat editor Sam Delaney investigates how much we're entitled to know about the private lives of the famous - and how much they have a right to keep hidden. Do celebs deserve to have their sex lives exposed just because they are famous? And could the rest of us really be jailed for passing on their secrets? As he meets victims of phone hacking and tabloid exposés, and goes out with the paps hunting the latest juicy shots, Sam asks how the gossip he has always considered harmless has suddenly become so serious - and even dangerous.


- - -
URL
- - -    
http://www.bbc.co.uk/programmes/b014lzkf 
http://www.bbc.co.uk/programmes/b0146g6n


- - -
Technical Details
- - -
General
Complete name                    : BBC.Sex.Lies.and.Gagging.Orders/Sex_Lies_and_Gagging_Orders_-_Sex_Lies_and_Gagging_Orders_b014lzkf_default.mp4
Format                           : MPEG-4
Format profile                   : Base Media
Codec ID                         : isom
File size                        : 1.05 GiB
Duration                         : 57mn 5s
Overall bit rate                 : 2 635 Kbps
Movie name                       : Sex, Lies and Gagging Orders
Album                            : Sex, Lies and Gagging Orders
Performer                        : Sex, Lies and Gagging Orders
Genre                            : Factual
Recorded date                    : 2011-08-30T21:00:00+01:00
Tagged date                      : UTC 2011-08-31 11:57:40
Writing application              : Lavf53.10.0
Cover                            : Yes
Comment                          : Recorded using get_iplayer, by Aularon.
rtng                             : 4
stik                             : 1
desc                             : After a summer dominated by revelations about phone hacking and superinjunctions, Sam Delaney investigates how much we're entitled to know about the private lives of the famous.
tvnn                             : BBC Three
tvsh                             : Sex, Lies and Gagging Orders
tven                             : b014lzkf
catg                             : Factual

Video
ID                               : 1
Format                           : AVC
Format/Info                      : Advanced Video Codec
Format profile                   : High@L4.1
Format settings, CABAC           : Yes
Format settings, ReFrames        : 6 frames
Codec ID                         : avc1
Codec ID/Info                    : Advanced Video Coding
Duration                         : 57mn 5s
Bit rate mode                    : Variable
Bit rate                         : 2 535 Kbps
Maximum bit rate                 : 3 500 Kbps
Width                            : 1 280 pixels
Height                           : 720 pixels
Display aspect ratio             : 16:9
Frame rate mode                  : Constant
Frame rate                       : 25.000 fps
Standard                         : PAL
Color space                      : YUV
Chroma subsampling               : 4:2:0
Bit depth                        : 8 bits
Scan type                        : Progressive
Bits/(Pixel*Frame)               : 0.110
Stream size                      : 1.01 GiB (96%)

Audio
ID                               : 2
Format                           : AAC
Format/Info                      : Advanced Audio Codec
Format profile                   : HE-AAC / LC
Codec ID                         : 40
Duration                         : 57mn 5s
Bit rate mode                    : Constant
Bit rate                         : 96.0 Kbps
Channel(s)                       : 2 channels
Channel positions                : Front: L R
Sampling rate                    : 48.0 KHz / 24.0 KHz
Compression mode                 : Lossy
Stream size                      : 38.7 MiB (4%)


                  ______                                     
                 (____  \                                    
                  ____)  )_____  ____ _____ _   _  ___ _____ 
                 |  __  (| ___ |/ ___|____ | | | |/___) ___ |
            _ _ _| |__)  ) ____( (___/ ___ | |_| |___ | ____|
           (_|_|_)______/|_____)\____)_____|____/(___/|_____)
                                                              
                   ______ _                 _             
                  / _____) |               (_)            
                 ( (____ | |__  _____  ____ _ ____   ____ 
                  \____ \|  _ \(____ |/ ___) |  _ \ / _  |
                  _____) ) | | / ___ | |   | | | | ( (_| |
                 (______/|_| |_\_____|_|   |_|_| |_|\___ |
                                                   (_____|
                                  _      
                                 (_)     
                                  _  ___ 
                                 | |/___)
                                 | |___ |
                                 |_(___/ 

                    _______             _               
                   (_______)           (_)              
                    _       _____  ____ _ ____   ____   
                   | |     (____ |/ ___) |  _ \ / _  |  
                   | |_____/ ___ | |   | | | | ( (_| |_ 
                    \______)_____|_|   |_|_| |_|\___ (_)
                                               (_____|  

                                    ;)


